PathFileType	4	(X/Y/Z)	s01c0401.trc
DataRate	CameraRate	NumFrames	NumMarkers	Units	OrigDataRate	OrigDataStartFrame	OrigNumFrames
200	200	6	48	mm	200	1250	2000
Frame#	Time	racr			lacr			c7			jug			rlel			rdr			llel			ldr			s2			lic			ric			lasi			rasi			rpsi			lpsi			rgt			lgt			rth1			rth2			rth3			rth4			rlfc			rsh1			rsh2			rsh3			rsh4			rlmal			rmmal			rcal			rtoe			rmt5			lth1			lth2			lth4			lth3			llfc			lsh1			lsh2			lsh3			lsh4			llmal			lmmal			lcal			ltoe			lmt5			SBIKE			LBIKE			RBIKE			
		X1	Y1	Z1	X2	Y2	Z2	X3	Y3	Z3	X4	Y4	Z4	X5	Y5	Z5	X6	Y6	Z6	X7	Y7	Z7	X8	Y8	Z8	X9	Y9	Z9	X10	Y10	Z10	X11	Y11	Z11	X12	Y12	Z12	X13	Y13	Z13	X14	Y14	Z14	X15	Y15	Z15	X16	Y16	Z16	X17	Y17	Z17	X18	Y18	Z18	X19	Y19	Z19	X20	Y20	Z20	X21	Y21	Z21	X22	Y22	Z22	X23	Y23	Z23	X24	Y24	Z24	X25	Y25	Z25	X26	Y26	Z26	X27	Y27	Z27	X28	Y28	Z28	X29	Y29	Z29	X30	Y30	Z30	X31	Y31	Z31	X32	Y32	Z32	X33	Y33	Z33	X34	Y34	Z34	X35	Y35	Z35	X36	Y36	Z36	X37	Y37	Z37	X38	Y38	Z38	X39	Y39	Z39	X40	Y40	Z40	X41	Y41	Z41	X42	Y42	Z42	X43	Y43	Z43	X44	Y44	Z44	X45	Y45	Z45	X46	Y46	Z46	X47	Y47	Z47	X48	Y48	Z48	
1250	6.2500	727.383362	1268.052368	-30.770947	751.146667	1247.185913	-413.034546	741.791321	1371.183960	-216.975449	716.419495	1203.613770	-216.018967	551.308350	1049.586914	78.488998	699.550476	891.164734	-29.034542	569.672302	1059.646606	-557.994141	696.606567	888.009827	-449.174683	197.924515	1204.398560	-248.809418	374.877869	1202.299927	-413.507599	341.848511	1188.105103	-79.399788	371.706360	1144.796265	-384.488129	370.099548	1140.967407	-110.751396	229.779160	1238.748291	-194.030457	231.981476	1247.836670	-298.667358	281.001862	1072.070190	-64.544174	318.906616	1073.292725	-437.220856	344.381683	952.209412	-48.176369	387.943695	881.940002	-53.547421	429.972961	802.553040	-65.700615	437.067627	908.315735	-62.665604	464.072845	692.770203	-87.279182	407.597290	585.841125	-55.796959	380.198425	505.775421	-62.781006	343.722229	425.548584	-74.972305	424.210846	491.244080	-100.970345	278.076447	320.521118	-96.874443	320.989014	324.161926	-173.227829	230.633240	311.522980	-150.741653	472.822662	191.484177	-128.153687	362.962250	201.345474	-62.198906	384.285583	969.633362	-451.947113	451.278320	914.520630	-442.254486	485.248077	954.434814	-425.541534	509.258575	853.259644	-427.759186	545.334900	755.527283	-406.489288	435.000793	722.274292	-442.500427	358.542297	682.216125	-437.243347	281.427063	645.824646	-425.357758	385.159363	635.018982	-406.691315	169.226471	596.156494	-413.131653	189.854279	575.338440	-333.116180	117.843185	618.152283	-370.205780	225.256470	362.173615	-369.534760	160.441223	444.648621	-437.260956	-270.448761	878.099548	-264.864807	-11.929872	84.621681	-453.461975	-20.240898	80.833260	-53.564636	
1251	6.2550	727.982300	1268.518921	-32.947010	750.588745	1247.771973	-415.198456	741.461548	1371.993896	-219.148697	716.983154	1204.697754	-217.974945	552.310303	1050.493896	77.363800	699.716553	891.065369	-28.816364	568.972473	1059.575317	-559.257812	696.442383	888.158569	-449.655975	198.014343	1203.197388	-247.063477	373.555023	1202.237061	-413.334656	342.600922	1186.704468	-78.837639	371.169983	1144.751709	-384.133942	370.677887	1139.235962	-110.176956	230.116745	1237.357300	-192.349915	231.634369	1246.901245	-297.025848	280.794922	1069.909424	-64.255234	318.954620	1074.288818	-437.213593	341.439575	949.532410	-48.147026	383.248260	878.131409	-53.275639	423.236908	797.847229	-65.459129	432.942383	903.338196	-62.422211	454.876312	686.658203	-87.344116	399.054016	579.425659	-55.512985	372.386353	499.117645	-62.608566	336.506104	418.608337	-74.733452	416.539398	484.868896	-100.919548	271.889832	313.713196	-97.140587	314.581726	317.202271	-172.900238	224.779526	306.086823	-150.121964	465.193817	182.129639	-128.469833	355.599640	193.711456	-62.344830	386.708801	972.955444	-452.522217	455.124786	919.491638	-443.751984	488.743561	960.238159	-425.758759	514.837219	859.374146	-429.529572	553.264954	762.987061	-408.427948	443.137512	729.458069	-443.711945	366.740753	689.581238	-438.071289	289.356384	653.430115	-426.102356	393.399994	642.207642	-407.642242	177.740997	603.470459	-413.248016	198.667374	582.824768	-332.904968	126.329559	625.643677	-370.073181	233.355118	369.573975	-369.358398	168.745667	452.108673	-437.160706	-270.409943	878.059143	-264.873322	-11.927045	84.610390	-453.463287	-20.229179	80.801743	-53.576530	
1252	6.2600	728.507385	1269.135376	-35.276047	749.927429	1248.259155	-417.489288	741.176636	1372.775635	-221.451187	717.569275	1205.943970	-219.450989	553.342773	1051.538574	76.211586	699.778564	890.853516	-28.366613	568.121216	1059.555786	-560.739746	696.152832	888.304260	-450.121277	198.200562	1202.171021	-245.237274	372.071991	1202.313110	-413.208282	343.482574	1185.348633	-78.406586	370.595062	1144.976196	-384.082336	371.375641	1137.550781	-109.729889	230.582886	1236.070435	-190.586121	231.338272	1246.064453	-295.210327	280.726929	1067.921387	-63.925167	318.758453	1075.448853	-437.313904	338.463348	947.107239	-47.909817	378.427795	874.633301	-52.917023	416.427094	793.468628	-65.104904	428.691315	898.589172	-62.233814	445.290863	680.938416	-87.042213	390.321747	573.569458	-55.169704	364.093811	493.141327	-62.326439	328.710754	412.418945	-74.373413	408.488525	479.123840	-100.460953	265.373840	307.520386	-97.397484	307.941864	310.787689	-172.291306	218.572281	301.131348	-150.001923	457.175690	173.396561	-128.821198	347.796906	186.544769	-62.457691	388.950500	976.404297	-453.265106	458.723236	924.565369	-445.116547	491.305786	966.067749	-426.997101	519.615540	865.558105	-431.980988	561.025208	770.494934	-410.568695	451.372864	736.685974	-444.992035	375.075073	696.806030	-438.946381	297.528412	660.806091	-426.840485	401.847229	649.470642	-408.506256	186.445221	610.394775	-413.313904	207.808105	589.993103	-332.567719	135.051254	632.625916	-369.846100	241.955902	376.410278	-369.216614	177.473007	459.143768	-437.098145	-270.323608	878.026489	-264.703552	-11.924784	84.609558	-453.461365	-20.216400	80.792313	-53.561707	
1253	6.2650	728.968018	1269.684937	-37.702614	749.153992	1248.663940	-419.923462	741.039062	1373.402588	-223.862640	718.067322	1206.950562	-221.742737	554.556396	1052.639893	75.110786	699.856262	890.552917	-27.712128	567.202271	1059.287842	-562.091431	695.921814	888.486145	-450.502502	198.431244	1201.193848	-243.371292	370.475372	1202.537720	-413.137695	344.512634	1183.916260	-78.211754	369.941650	1145.448120	-384.065918	372.178558	1135.945557	-109.474846	231.189148	1234.859985	-188.842163	231.084854	1245.320068	-293.330475	280.764893	1066.172119	-63.582405	318.296143	1076.921021	-437.475830	335.382202	945.002197	-47.506195	373.561707	871.533691	-52.576527	409.568634	789.454529	-64.595085	424.008850	894.419861	-62.083416	435.479156	675.670166	-86.487938	381.346436	568.469482	-54.773712	355.556244	487.938080	-61.899128	320.575043	407.076691	-73.867943	400.385864	474.133911	-99.926590	258.372528	301.882416	-97.515533	300.718353	304.936340	-171.655869	212.025146	296.623718	-149.757614	448.606354	165.028214	-129.365295	339.487183	179.868698	-62.613579	391.060760	979.879089	-454.082062	461.765411	929.634399	-446.994354	493.502502	971.796570	-428.748077	523.981445	871.860535	-434.459412	568.665466	777.945557	-412.916901	459.629425	744.019531	-446.321442	383.361755	703.964172	-439.797913	305.745148	667.985229	-427.598572	410.526062	656.886414	-409.971619	195.416550	616.842834	-413.237701	217.192566	596.750305	-332.311737	143.857895	639.067139	-369.564545	249.846008	382.508881	-368.258057	186.571411	465.708557	-437.013245	-270.382782	878.071106	-264.820648	-11.920940	84.610390	-453.454590	-20.192440	80.740898	-53.536942	
1254	6.2700	729.394775	1270.077881	-41.728008	748.434387	1249.032349	-422.460144	741.008179	1374.086182	-226.380569	718.475891	1207.842285	-223.998962	555.614441	1053.724731	73.939964	699.894836	890.161011	-26.964083	566.192505	1058.910522	-563.416809	695.648132	888.649658	-450.777985	198.641144	1200.362793	-241.400131	368.776733	1202.948120	-413.110260	345.732330	1182.461060	-78.279037	369.258484	1146.191528	-384.153992	373.097229	1134.473267	-109.392120	231.940002	1233.709839	-187.128235	230.843872	1244.672119	-291.383057	280.938690	1064.558228	-63.231449	317.698883	1078.546753	-437.649506	332.268188	943.108154	-47.095524	368.596527	868.776428	-52.131725	402.701965	785.840576	-64.037170	419.441193	890.232300	-61.480263	425.630615	671.048462	-85.697769	372.270874	564.134460	-54.226246	346.815582	483.509216	-61.307442	312.155640	402.539001	-73.308029	391.867676	469.714294	-99.117073	250.297791	297.485046	-96.741547	292.487732	299.327850	-171.210724	205.202545	292.869141	-149.420975	439.672638	157.346970	-129.874039	330.884003	173.827866	-62.731197	392.990234	983.352478	-455.003540	464.501099	934.912964	-448.830994	494.979706	977.460632	-430.660645	529.482849	879.220154	-435.170074	576.199097	785.517090	-415.158997	467.779724	751.404419	-447.644928	391.745422	711.181396	-440.743103	314.220703	674.968628	-428.200073	419.204651	664.121826	-410.932068	204.453796	622.901367	-413.123413	226.654083	603.098267	-332.084290	152.632187	644.961853	-369.268372	259.281464	388.562927	-367.868988	195.979187	471.799683	-436.918579	-270.371826	878.061401	-264.698486	-11.913996	84.627312	-453.450012	-20.199575	80.730865	-53.540962	
1255	6.2750	729.866882	1270.619873	-44.019169	747.716553	1249.343140	-425.023163	741.072083	1374.618652	-228.934158	718.781860	1208.596436	-226.375473	556.601501	1055.000977	72.890724	699.942078	889.771362	-26.220093	565.245056	1058.402710	-564.757446	695.375366	888.808472	-450.977600	198.900635	1199.759277	-239.409302	367.020538	1203.541138	-413.143707	347.214935	1181.147827	-78.435104	368.528290	1147.149048	-384.314148	374.108063	1133.159546	-109.492897	232.475143	1232.963013	-185.180725	230.626663	1244.115723	-289.422302	281.185120	1063.228149	-62.894699	316.862152	1080.307861	-437.879486	329.212250	941.653198	-46.547405	363.724487	866.334534	-51.623695	395.828217	782.628967	-63.385098	415.470184	886.504578	-61.607738	416.091400	667.204834	-84.883896	363.147827	560.615601	-53.614361	337.941071	479.821686	-60.618870	303.632172	398.842407	-72.546280	383.297394	466.096039	-97.985703	242.841110	293.176636	-96.814079	284.650635	294.782593	-170.401886	198.182175	289.714325	-148.968353	430.371429	150.091522	-130.361252	321.958374	168.338989	-62.805191	394.686981	986.709351	-456.089905	468.218506	940.409668	-449.609436	496.981354	983.399109	-432.655853	533.954285	886.213928	-437.432953	583.430725	793.365601	-417.485199	475.766449	758.856018	-448.945465	399.993561	718.206787	-441.475464	322.471832	681.743774	-428.844818	427.874023	671.304382	-411.984863	213.403580	628.470276	-412.958252	236.217056	608.954285	-331.892090	161.385345	650.324097	-368.945618	269.547852	394.473755	-367.832367	205.660782	477.383148	-436.842468	-270.377502	878.067810	-264.662659	-11.913706	84.639236	-453.442566	-20.187317	80.738655	-53.523315	
